<svg xmlns="http://www.w3.org/2000/svg" xmlns:xlink="http://www.w3.org/1999/xlink" width="500" zoomAndPan="magnify" viewBox="0 0 375 374.999991" height="500" preserveAspectRatio="xMidYMid meet" version="1.0"><defs><g/><clipPath id="id1"><path d="M 85 87 L 286 87 L 286 288 L 85 288 Z M 85 87 " clip-rule="nonzero"/></clipPath><clipPath id="id2"><path d="M 44.382812 181.109375 L 159.160156 76.566406 L 294.003906 224.609375 L 179.230469 329.152344 Z M 44.382812 181.109375 " clip-rule="nonzero"/></clipPath><clipPath id="id3"><path d="M 44.382812 181.109375 L 192.425781 46.265625 L 327.273438 194.308594 L 179.230469 329.152344 Z M 44.382812 181.109375 " clip-rule="nonzero"/></clipPath></defs><g clip-path="url(#id1)"><g clip-path="url(#id2)"><g clip-path="url(#id3)"><path fill="#403737" d="M 253.25 261.730469 C 212.445312 298.898438 148.972656 295.933594 111.804688 255.132812 C 74.640625 214.328125 77.601562 150.851562 118.40625 113.6875 C 159.207031 76.523438 222.683594 79.484375 259.847656 120.285156 C 297.015625 161.089844 294.054688 224.566406 253.25 261.730469 Z M 119.402344 114.78125 C 79.179688 151.414062 76.265625 213.917969 112.898438 254.136719 C 149.535156 294.355469 212.035156 297.269531 252.253906 260.636719 C 292.472656 224.003906 295.390625 161.503906 258.753906 121.28125 C 222.121094 81.0625 159.621094 78.148438 119.402344 114.78125 Z M 119.402344 114.78125 " fill-opacity="1" fill-rule="nonzero"/></g></g></g><g fill="#403737" fill-opacity="1"><g transform="translate(123.596518, 219.947345)"><g><path d="M 4.578125 -58.003906 C 4.578125 -32.96875 53.730469 -39.457031 53.730469 -16.484375 C 53.730469 -8.011719 44.953125 0.152344 33.808594 0.152344 C 15.644531 0.152344 5.648438 -18.011719 5.648438 -18.011719 L 4.882812 -18.011719 L 4.882812 -7.785156 C 10.53125 -3.585938 19.460938 1.527344 29.535156 1.527344 C 47.164062 1.527344 58.15625 -9.003906 58.15625 -19.613281 C 58.15625 -46.328125 9.921875 -38.921875 9.921875 -59.835938 C 9.921875 -68.304688 17.707031 -76.929688 31.902344 -76.929688 C 48.234375 -76.929688 52.890625 -64.109375 52.890625 -64.109375 L 53.652344 -64.109375 L 53.652344 -74.335938 C 47.777344 -76.320312 41.289062 -77.847656 31.902344 -77.847656 C 14.273438 -77.847656 4.578125 -68.613281 4.578125 -58.003906 Z M 4.578125 -58.003906 "/></g></g></g><g fill="#403737" fill-opacity="1"><g transform="translate(186.325323, 219.947345)"><g><path d="M 2.289062 -76.320312 L 2.289062 -75.558594 C 8.851562 -75.558594 9.3125 -70.136719 9.3125 -55.101562 L 9.3125 -21.21875 C 9.3125 -6.183594 8.851562 -0.761719 2.289062 -0.761719 L 2.289062 0 L 11.449219 0 C 19.84375 0 25.261719 1.527344 34.113281 1.527344 C 50.371094 1.527344 59.453125 -7.328125 59.453125 -20.53125 C 59.453125 -32.128906 49.914062 -39.609375 38.234375 -39.609375 C 30.910156 -39.609375 25.566406 -34.953125 22.363281 -34.953125 C 21.445312 -34.953125 20.148438 -35.183594 20.148438 -36.9375 C 20.148438 -45.410156 54.644531 -43.882812 54.644531 -63.804688 C 54.644531 -74.488281 44.800781 -77.847656 34.039062 -77.847656 C 27.324219 -77.847656 17.859375 -76.320312 11.144531 -76.320312 Z M 15.796875 -74.640625 C 20.226562 -76.015625 24.652344 -76.777344 29.613281 -76.777344 C 38.921875 -76.777344 48.082031 -73.113281 48.082031 -63.652344 C 48.082031 -48.234375 19.386719 -46.785156 19.386719 -36.785156 C 19.386719 -34.953125 20.683594 -34.191406 22.054688 -34.191406 C 26.558594 -34.191406 31.75 -38.769531 38.160156 -38.769531 C 47.699219 -38.769531 52.890625 -29.152344 52.890625 -19.996094 C 52.890625 -7.328125 43.960938 0.457031 29.765625 0.457031 C 24.117188 0.457031 20.453125 -0.304688 15.796875 -1.984375 Z M 15.796875 -74.640625 "/></g></g></g><g fill="#403737" fill-opacity="1"><g transform="translate(172.207869, 253.937558)"><g><path d="M 3.296875 -1.078125 C 3.296875 -0.722656 3.15625 -0.4375 2.875 -0.21875 C 2.59375 -0.0078125 2.25 0.09375 1.84375 0.09375 C 1.445312 0.09375 1.113281 0.046875 0.84375 -0.046875 C 0.582031 -0.140625 0.453125 -0.242188 0.453125 -0.359375 L 0.453125 -1.09375 C 0.453125 -1.1875 0.488281 -1.234375 0.5625 -1.234375 C 0.644531 -1.234375 0.695312 -1.1875 0.71875 -1.09375 C 0.894531 -0.519531 1.253906 -0.234375 1.796875 -0.234375 C 2.046875 -0.234375 2.25 -0.296875 2.40625 -0.421875 C 2.570312 -0.546875 2.65625 -0.703125 2.65625 -0.890625 C 2.65625 -1.078125 2.582031 -1.238281 2.4375 -1.375 C 2.289062 -1.507812 2.109375 -1.625 1.890625 -1.71875 C 1.679688 -1.820312 1.46875 -1.929688 1.25 -2.046875 C 1.039062 -2.160156 0.859375 -2.300781 0.703125 -2.46875 C 0.554688 -2.644531 0.484375 -2.847656 0.484375 -3.078125 C 0.484375 -3.410156 0.613281 -3.6875 0.875 -3.90625 C 1.132812 -4.132812 1.476562 -4.25 1.90625 -4.25 C 2.195312 -4.25 2.460938 -4.195312 2.703125 -4.09375 C 2.941406 -4 3.0625 -3.898438 3.0625 -3.796875 L 3.0625 -3.15625 C 3.0625 -3.050781 3.019531 -3 2.9375 -3 C 2.863281 -3 2.816406 -3.050781 2.796875 -3.15625 C 2.640625 -3.664062 2.328125 -3.921875 1.859375 -3.921875 C 1.640625 -3.921875 1.453125 -3.863281 1.296875 -3.75 C 1.148438 -3.644531 1.078125 -3.503906 1.078125 -3.328125 C 1.078125 -3.148438 1.148438 -2.988281 1.296875 -2.84375 C 1.453125 -2.707031 1.640625 -2.585938 1.859375 -2.484375 C 2.078125 -2.378906 2.296875 -2.269531 2.515625 -2.15625 C 2.734375 -2.050781 2.914062 -1.90625 3.0625 -1.71875 C 3.21875 -1.53125 3.296875 -1.316406 3.296875 -1.078125 Z M 3.296875 -1.078125 "/></g></g></g><g fill="#403737" fill-opacity="1"><g transform="translate(177.132039, 253.937558)"><g><path d="M 4.125 -2.625 C 4.125 -2.289062 3.976562 -2.125 3.6875 -2.125 L 1.28125 -2.125 C 1.21875 -2.125 1.1875 -2.078125 1.1875 -1.984375 C 1.195312 -1.472656 1.34375 -1.066406 1.625 -0.765625 C 1.914062 -0.472656 2.28125 -0.328125 2.71875 -0.328125 C 3.164062 -0.328125 3.492188 -0.414062 3.703125 -0.59375 C 3.773438 -0.644531 3.835938 -0.640625 3.890625 -0.578125 C 3.953125 -0.515625 3.945312 -0.445312 3.875 -0.375 C 3.5625 -0.0625 3.132812 0.09375 2.59375 0.09375 C 1.914062 0.09375 1.382812 -0.0976562 1 -0.484375 C 0.613281 -0.878906 0.421875 -1.425781 0.421875 -2.125 C 0.421875 -2.6875 0.609375 -3.179688 0.984375 -3.609375 C 1.367188 -4.035156 1.828125 -4.25 2.359375 -4.25 C 2.890625 -4.25 3.316406 -4.09375 3.640625 -3.78125 C 3.960938 -3.476562 4.125 -3.09375 4.125 -2.625 Z M 3.390625 -2.734375 C 3.390625 -3.066406 3.296875 -3.347656 3.109375 -3.578125 C 2.929688 -3.804688 2.679688 -3.921875 2.359375 -3.921875 C 2.035156 -3.921875 1.757812 -3.785156 1.53125 -3.515625 C 1.300781 -3.253906 1.1875 -2.953125 1.1875 -2.609375 C 1.1875 -2.523438 1.222656 -2.484375 1.296875 -2.484375 L 3.125 -2.484375 C 3.300781 -2.484375 3.390625 -2.566406 3.390625 -2.734375 Z M 3.390625 -2.734375 "/></g></g></g><g fill="#403737" fill-opacity="1"><g transform="translate(182.888, 253.937558)"><g><path d="M 1.390625 -4.25 C 1.484375 -4.25 1.53125 -4.1875 1.53125 -4.0625 L 1.53125 -3.625 C 1.53125 -3.601562 1.539062 -3.59375 1.5625 -3.59375 C 1.582031 -3.59375 1.609375 -3.609375 1.640625 -3.640625 C 1.960938 -4.046875 2.378906 -4.25 2.890625 -4.25 C 3.410156 -4.25 3.804688 -4.109375 4.078125 -3.828125 C 4.359375 -3.554688 4.5 -3.164062 4.5 -2.65625 L 4.5 -0.546875 C 4.5 -0.453125 4.539062 -0.375 4.625 -0.3125 C 4.707031 -0.25 4.800781 -0.210938 4.90625 -0.203125 L 5.140625 -0.1875 C 5.203125 -0.1875 5.234375 -0.148438 5.234375 -0.078125 C 5.234375 -0.00390625 5.191406 0.03125 5.109375 0.03125 L 4.21875 0 L 3.46875 0.03125 C 3.382812 0.03125 3.34375 -0.00390625 3.34375 -0.078125 C 3.34375 -0.148438 3.375 -0.1875 3.4375 -0.1875 L 3.546875 -0.203125 C 3.753906 -0.234375 3.859375 -0.347656 3.859375 -0.546875 L 3.859375 -2.765625 C 3.859375 -3.109375 3.757812 -3.375 3.5625 -3.5625 C 3.375 -3.75 3.109375 -3.84375 2.765625 -3.84375 C 2.421875 -3.84375 2.128906 -3.703125 1.890625 -3.421875 C 1.648438 -3.148438 1.53125 -2.878906 1.53125 -2.609375 L 1.53125 -0.546875 C 1.53125 -0.347656 1.640625 -0.234375 1.859375 -0.203125 L 2 -0.1875 C 2.070312 -0.1875 2.109375 -0.148438 2.109375 -0.078125 C 2.109375 -0.00390625 2.066406 0.03125 1.984375 0.03125 L 1.1875 0 L 0.296875 0.03125 C 0.210938 0.03125 0.171875 -0.00390625 0.171875 -0.078125 C 0.171875 -0.148438 0.203125 -0.1875 0.265625 -0.1875 L 0.5 -0.203125 C 0.613281 -0.210938 0.703125 -0.25 0.765625 -0.3125 C 0.835938 -0.375 0.875 -0.453125 0.875 -0.546875 L 0.875 -3.59375 C 0.875 -3.695312 0.847656 -3.769531 0.796875 -3.8125 C 0.753906 -3.851562 0.679688 -3.875 0.578125 -3.875 L 0.296875 -3.875 C 0.222656 -3.875 0.1875 -3.910156 0.1875 -3.984375 C 0.1875 -4.054688 0.222656 -4.097656 0.296875 -4.109375 L 1.375 -4.25 C 1.382812 -4.25 1.390625 -4.25 1.390625 -4.25 Z M 1.390625 -4.25 "/></g></g></g><g fill="#403737" fill-opacity="1"><g transform="translate(189.459114, 253.937558)"><g><path d="M 2 -0.1875 C 2.070312 -0.1875 2.109375 -0.148438 2.109375 -0.078125 C 2.109375 -0.00390625 2.066406 0.03125 1.984375 0.03125 L 1.1875 0 L 0.296875 0.03125 C 0.210938 0.03125 0.171875 -0.00390625 0.171875 -0.078125 C 0.171875 -0.148438 0.203125 -0.1875 0.265625 -0.1875 L 0.5 -0.203125 C 0.613281 -0.210938 0.703125 -0.25 0.765625 -0.3125 C 0.835938 -0.375 0.875 -0.453125 0.875 -0.546875 L 0.875 -3.59375 C 0.875 -3.695312 0.847656 -3.769531 0.796875 -3.8125 C 0.753906 -3.851562 0.679688 -3.875 0.578125 -3.875 L 0.296875 -3.875 C 0.222656 -3.875 0.1875 -3.910156 0.1875 -3.984375 C 0.1875 -4.054688 0.222656 -4.097656 0.296875 -4.109375 L 1.375 -4.25 C 1.476562 -4.257812 1.53125 -4.195312 1.53125 -4.0625 L 1.53125 -0.546875 C 1.53125 -0.347656 1.640625 -0.234375 1.859375 -0.203125 Z M 0.84375 -5.5 C 0.769531 -5.570312 0.734375 -5.660156 0.734375 -5.765625 C 0.734375 -5.878906 0.769531 -5.972656 0.84375 -6.046875 C 0.925781 -6.117188 1.019531 -6.15625 1.125 -6.15625 C 1.238281 -6.15625 1.332031 -6.117188 1.40625 -6.046875 C 1.488281 -5.972656 1.53125 -5.878906 1.53125 -5.765625 C 1.53125 -5.660156 1.488281 -5.570312 1.40625 -5.5 C 1.332031 -5.425781 1.238281 -5.390625 1.125 -5.390625 C 1.019531 -5.390625 0.925781 -5.425781 0.84375 -5.5 Z M 0.84375 -5.5 "/></g></g></g><g fill="#403737" fill-opacity="1"><g transform="translate(193.102335, 253.937558)"><g><path d="M 2.53125 -4.25 C 3.164062 -4.25 3.671875 -4.046875 4.046875 -3.640625 C 4.429688 -3.242188 4.625 -2.71875 4.625 -2.0625 C 4.625 -1.414062 4.429688 -0.894531 4.046875 -0.5 C 3.671875 -0.101562 3.160156 0.09375 2.515625 0.09375 C 1.867188 0.09375 1.359375 -0.101562 0.984375 -0.5 C 0.609375 -0.90625 0.421875 -1.425781 0.421875 -2.0625 C 0.421875 -2.707031 0.613281 -3.234375 1 -3.640625 C 1.382812 -4.046875 1.894531 -4.25 2.53125 -4.25 Z M 3.625 -3.234375 C 3.53125 -3.441406 3.390625 -3.609375 3.203125 -3.734375 C 3.015625 -3.859375 2.789062 -3.921875 2.53125 -3.921875 C 2.070312 -3.921875 1.726562 -3.769531 1.5 -3.46875 C 1.269531 -3.164062 1.15625 -2.765625 1.15625 -2.265625 C 1.15625 -1.753906 1.242188 -1.304688 1.421875 -0.921875 C 1.515625 -0.710938 1.65625 -0.546875 1.84375 -0.421875 C 2.03125 -0.296875 2.25 -0.234375 2.5 -0.234375 C 2.96875 -0.234375 3.3125 -0.382812 3.53125 -0.6875 C 3.757812 -0.988281 3.875 -1.390625 3.875 -1.890625 C 3.875 -2.398438 3.789062 -2.847656 3.625 -3.234375 Z M 3.625 -3.234375 "/></g></g></g><g fill="#403737" fill-opacity="1"><g transform="translate(199.390639, 253.937558)"><g><path d="M 1.390625 -4.25 C 1.484375 -4.25 1.53125 -4.1875 1.53125 -4.0625 L 1.53125 -3.609375 C 1.53125 -3.578125 1.539062 -3.5625 1.5625 -3.5625 C 1.582031 -3.5625 1.609375 -3.578125 1.640625 -3.609375 C 1.765625 -3.773438 1.9375 -3.921875 2.15625 -4.046875 C 2.382812 -4.179688 2.585938 -4.25 2.765625 -4.25 C 2.941406 -4.25 3.078125 -4.226562 3.171875 -4.1875 C 3.265625 -4.144531 3.3125 -4.101562 3.3125 -4.0625 L 3.3125 -3.421875 C 3.3125 -3.335938 3.269531 -3.296875 3.1875 -3.296875 C 3.144531 -3.296875 3.085938 -3.335938 3.015625 -3.421875 C 2.859375 -3.609375 2.65625 -3.703125 2.40625 -3.703125 C 2.164062 -3.703125 1.957031 -3.582031 1.78125 -3.34375 C 1.613281 -3.113281 1.53125 -2.78125 1.53125 -2.34375 L 1.53125 -0.546875 C 1.53125 -0.347656 1.675781 -0.238281 1.96875 -0.21875 L 2.3125 -0.1875 C 2.375 -0.1875 2.40625 -0.148438 2.40625 -0.078125 C 2.40625 -0.00390625 2.363281 0.03125 2.28125 0.03125 L 1.1875 0 L 0.296875 0.03125 C 0.210938 0.03125 0.171875 -0.00390625 0.171875 -0.078125 C 0.171875 -0.148438 0.203125 -0.1875 0.265625 -0.1875 L 0.5 -0.203125 C 0.613281 -0.210938 0.703125 -0.25 0.765625 -0.3125 C 0.835938 -0.375 0.875 -0.453125 0.875 -0.546875 L 0.875 -3.59375 C 0.875 -3.695312 0.847656 -3.769531 0.796875 -3.8125 C 0.753906 -3.851562 0.679688 -3.875 0.578125 -3.875 L 0.296875 -3.875 C 0.222656 -3.875 0.1875 -3.910156 0.1875 -3.984375 C 0.1875 -4.054688 0.222656 -4.097656 0.296875 -4.109375 L 1.375 -4.25 C 1.382812 -4.25 1.390625 -4.25 1.390625 -4.25 Z M 1.390625 -4.25 "/></g></g></g><g fill="#403737" fill-opacity="1"><g transform="translate(169.727686, 266.414286)"><g><path d="M 2.53125 -4.25 C 3.164062 -4.25 3.671875 -4.046875 4.046875 -3.640625 C 4.429688 -3.242188 4.625 -2.71875 4.625 -2.0625 C 4.625 -1.414062 4.429688 -0.894531 4.046875 -0.5 C 3.671875 -0.101562 3.160156 0.09375 2.515625 0.09375 C 1.867188 0.09375 1.359375 -0.101562 0.984375 -0.5 C 0.609375 -0.90625 0.421875 -1.425781 0.421875 -2.0625 C 0.421875 -2.707031 0.613281 -3.234375 1 -3.640625 C 1.382812 -4.046875 1.894531 -4.25 2.53125 -4.25 Z M 3.625 -3.234375 C 3.53125 -3.441406 3.390625 -3.609375 3.203125 -3.734375 C 3.015625 -3.859375 2.789062 -3.921875 2.53125 -3.921875 C 2.070312 -3.921875 1.726562 -3.769531 1.5 -3.46875 C 1.269531 -3.164062 1.15625 -2.765625 1.15625 -2.265625 C 1.15625 -1.753906 1.242188 -1.304688 1.421875 -0.921875 C 1.515625 -0.710938 1.65625 -0.546875 1.84375 -0.421875 C 2.03125 -0.296875 2.25 -0.234375 2.5 -0.234375 C 2.96875 -0.234375 3.3125 -0.382812 3.53125 -0.6875 C 3.757812 -0.988281 3.875 -1.390625 3.875 -1.890625 C 3.875 -2.398438 3.789062 -2.847656 3.625 -3.234375 Z M 3.625 -3.234375 "/></g></g></g><g fill="#403737" fill-opacity="1"><g transform="translate(176.015991, 266.414286)"><g><path d="M 2.734375 -4.25 C 3.253906 -4.25 3.703125 -4.046875 4.078125 -3.640625 C 4.460938 -3.242188 4.65625 -2.734375 4.65625 -2.109375 C 4.65625 -1.492188 4.445312 -0.972656 4.03125 -0.546875 C 3.613281 -0.117188 3.113281 0.09375 2.53125 0.09375 C 2.101562 0.09375 1.734375 0.015625 1.421875 -0.140625 C 1.316406 -0.191406 1.242188 -0.21875 1.203125 -0.21875 C 1.085938 -0.21875 0.992188 -0.15625 0.921875 -0.03125 C 0.890625 0.0507812 0.847656 0.09375 0.796875 0.09375 C 0.691406 0.09375 0.644531 0.0390625 0.65625 -0.0625 C 0.6875 -0.300781 0.703125 -0.460938 0.703125 -0.546875 L 0.703125 -6 C 0.703125 -6.101562 0.675781 -6.175781 0.625 -6.21875 C 0.582031 -6.257812 0.507812 -6.28125 0.40625 -6.28125 L 0.109375 -6.28125 C 0.046875 -6.28125 0.015625 -6.316406 0.015625 -6.390625 C 0.015625 -6.460938 0.046875 -6.503906 0.109375 -6.515625 L 1.1875 -6.65625 C 1.195312 -6.65625 1.210938 -6.65625 1.234375 -6.65625 C 1.328125 -6.65625 1.375 -6.585938 1.375 -6.453125 L 1.328125 -4.5625 L 1.328125 -3.984375 C 1.328125 -3.929688 1.335938 -3.894531 1.359375 -3.875 C 1.378906 -3.863281 1.398438 -3.867188 1.421875 -3.890625 C 1.785156 -4.128906 2.222656 -4.25 2.734375 -4.25 Z M 3.921875 -1.828125 C 3.921875 -2.484375 3.789062 -2.988281 3.53125 -3.34375 C 3.28125 -3.695312 2.925781 -3.875 2.46875 -3.875 C 2.019531 -3.875 1.675781 -3.742188 1.4375 -3.484375 C 1.375 -3.429688 1.34375 -3.378906 1.34375 -3.328125 L 1.34375 -1.1875 C 1.34375 -0.914062 1.453125 -0.6875 1.671875 -0.5 C 1.898438 -0.320312 2.15625 -0.234375 2.4375 -0.234375 C 2.894531 -0.234375 3.253906 -0.378906 3.515625 -0.671875 C 3.785156 -0.960938 3.921875 -1.347656 3.921875 -1.828125 Z M 3.921875 -1.828125 "/></g></g></g><g fill="#403737" fill-opacity="1"><g transform="translate(182.33757, 266.414286)"><g><path d="M 2 -0.1875 C 2.070312 -0.1875 2.109375 -0.148438 2.109375 -0.078125 C 2.109375 -0.00390625 2.066406 0.03125 1.984375 0.03125 L 1.1875 0 L 0.296875 0.03125 C 0.210938 0.03125 0.171875 -0.00390625 0.171875 -0.078125 C 0.171875 -0.148438 0.203125 -0.1875 0.265625 -0.1875 L 0.5 -0.203125 C 0.613281 -0.210938 0.703125 -0.25 0.765625 -0.3125 C 0.835938 -0.375 0.875 -0.453125 0.875 -0.546875 L 0.875 -3.59375 C 0.875 -3.695312 0.847656 -3.769531 0.796875 -3.8125 C 0.753906 -3.851562 0.679688 -3.875 0.578125 -3.875 L 0.296875 -3.875 C 0.222656 -3.875 0.1875 -3.910156 0.1875 -3.984375 C 0.1875 -4.054688 0.222656 -4.097656 0.296875 -4.109375 L 1.375 -4.25 C 1.476562 -4.257812 1.53125 -4.195312 1.53125 -4.0625 L 1.53125 -0.546875 C 1.53125 -0.347656 1.640625 -0.234375 1.859375 -0.203125 Z M 0.84375 -5.5 C 0.769531 -5.570312 0.734375 -5.660156 0.734375 -5.765625 C 0.734375 -5.878906 0.769531 -5.972656 0.84375 -6.046875 C 0.925781 -6.117188 1.019531 -6.15625 1.125 -6.15625 C 1.238281 -6.15625 1.332031 -6.117188 1.40625 -6.046875 C 1.488281 -5.972656 1.53125 -5.878906 1.53125 -5.765625 C 1.53125 -5.660156 1.488281 -5.570312 1.40625 -5.5 C 1.332031 -5.425781 1.238281 -5.390625 1.125 -5.390625 C 1.019531 -5.390625 0.925781 -5.425781 0.84375 -5.5 Z M 0.84375 -5.5 "/></g></g></g><g fill="#403737" fill-opacity="1"><g transform="translate(185.980792, 266.414286)"><g><path d="M 2.53125 -4.25 C 3.164062 -4.25 3.671875 -4.046875 4.046875 -3.640625 C 4.429688 -3.242188 4.625 -2.71875 4.625 -2.0625 C 4.625 -1.414062 4.429688 -0.894531 4.046875 -0.5 C 3.671875 -0.101562 3.160156 0.09375 2.515625 0.09375 C 1.867188 0.09375 1.359375 -0.101562 0.984375 -0.5 C 0.609375 -0.90625 0.421875 -1.425781 0.421875 -2.0625 C 0.421875 -2.707031 0.613281 -3.234375 1 -3.640625 C 1.382812 -4.046875 1.894531 -4.25 2.53125 -4.25 Z M 3.625 -3.234375 C 3.53125 -3.441406 3.390625 -3.609375 3.203125 -3.734375 C 3.015625 -3.859375 2.789062 -3.921875 2.53125 -3.921875 C 2.070312 -3.921875 1.726562 -3.769531 1.5 -3.46875 C 1.269531 -3.164062 1.15625 -2.765625 1.15625 -2.265625 C 1.15625 -1.753906 1.242188 -1.304688 1.421875 -0.921875 C 1.515625 -0.710938 1.65625 -0.546875 1.84375 -0.421875 C 2.03125 -0.296875 2.25 -0.234375 2.5 -0.234375 C 2.96875 -0.234375 3.3125 -0.382812 3.53125 -0.6875 C 3.757812 -0.988281 3.875 -1.390625 3.875 -1.890625 C 3.875 -2.398438 3.789062 -2.847656 3.625 -3.234375 Z M 3.625 -3.234375 "/></g></g></g><g fill="#403737" fill-opacity="1"><g transform="translate(192.269096, 266.414286)"><g><path d="M 1.390625 -4.25 C 1.484375 -4.25 1.53125 -4.1875 1.53125 -4.0625 L 1.53125 -3.6875 C 1.53125 -3.664062 1.539062 -3.65625 1.5625 -3.65625 C 1.582031 -3.65625 1.609375 -3.671875 1.640625 -3.703125 C 1.972656 -4.066406 2.34375 -4.25 2.75 -4.25 C 3.039062 -4.25 3.28125 -4.191406 3.46875 -4.078125 C 3.664062 -3.972656 3.820312 -3.796875 3.9375 -3.546875 C 3.957031 -3.515625 3.972656 -3.5 3.984375 -3.5 C 4.003906 -3.5 4.023438 -3.519531 4.046875 -3.5625 C 4.390625 -4.019531 4.8125 -4.25 5.3125 -4.25 C 5.738281 -4.25 6.070312 -4.113281 6.3125 -3.84375 C 6.550781 -3.582031 6.671875 -3.195312 6.671875 -2.6875 L 6.671875 -0.546875 C 6.671875 -0.453125 6.710938 -0.375 6.796875 -0.3125 C 6.878906 -0.25 6.972656 -0.210938 7.078125 -0.203125 L 7.3125 -0.1875 C 7.375 -0.1875 7.40625 -0.148438 7.40625 -0.078125 C 7.40625 -0.00390625 7.363281 0.03125 7.28125 0.03125 L 6.390625 0 L 5.640625 0.03125 C 5.554688 0.03125 5.515625 -0.00390625 5.515625 -0.078125 C 5.515625 -0.148438 5.546875 -0.1875 5.609375 -0.1875 L 5.71875 -0.203125 C 5.925781 -0.234375 6.03125 -0.347656 6.03125 -0.546875 L 6.03125 -2.8125 C 6.03125 -3.5 5.734375 -3.84375 5.140625 -3.84375 C 4.859375 -3.84375 4.613281 -3.707031 4.40625 -3.4375 C 4.207031 -3.175781 4.109375 -2.90625 4.109375 -2.625 L 4.109375 -0.5625 C 4.109375 -0.34375 4.203125 -0.222656 4.390625 -0.203125 L 4.53125 -0.1875 C 4.59375 -0.1875 4.625 -0.148438 4.625 -0.078125 C 4.625 -0.00390625 4.585938 0.03125 4.515625 0.03125 L 3.796875 0 L 3.0625 0.03125 C 2.976562 0.03125 2.9375 0 2.9375 -0.0625 C 2.9375 -0.132812 2.96875 -0.175781 3.03125 -0.1875 L 3.15625 -0.203125 C 3.351562 -0.234375 3.453125 -0.347656 3.453125 -0.546875 L 3.453125 -2.8125 C 3.453125 -3.5 3.160156 -3.84375 2.578125 -3.84375 C 2.304688 -3.84375 2.0625 -3.710938 1.84375 -3.453125 C 1.632812 -3.191406 1.53125 -2.914062 1.53125 -2.625 L 1.53125 -0.546875 C 1.53125 -0.347656 1.640625 -0.234375 1.859375 -0.203125 L 2 -0.1875 C 2.070312 -0.1875 2.109375 -0.148438 2.109375 -0.078125 C 2.109375 -0.00390625 2.066406 0.03125 1.984375 0.03125 L 1.1875 0 L 0.296875 0.03125 C 0.210938 0.03125 0.171875 -0.00390625 0.171875 -0.078125 C 0.171875 -0.148438 0.203125 -0.1875 0.265625 -0.1875 L 0.5 -0.203125 C 0.613281 -0.210938 0.703125 -0.25 0.765625 -0.3125 C 0.835938 -0.375 0.875 -0.453125 0.875 -0.546875 L 0.875 -3.59375 C 0.875 -3.695312 0.847656 -3.769531 0.796875 -3.8125 C 0.753906 -3.851562 0.679688 -3.875 0.578125 -3.875 L 0.296875 -3.875 C 0.222656 -3.875 0.1875 -3.910156 0.1875 -3.984375 C 0.1875 -4.054688 0.222656 -4.097656 0.296875 -4.109375 L 1.375 -4.25 C 1.382812 -4.25 1.390625 -4.25 1.390625 -4.25 Z M 1.390625 -4.25 "/></g></g></g><g fill="#403737" fill-opacity="1"><g transform="translate(201.011173, 266.414286)"><g><path d="M 4.171875 -0.046875 C 4.171875 0.046875 4.066406 0.09375 3.859375 0.09375 C 3.515625 0.09375 3.226562 -0.0390625 3 -0.3125 C 2.957031 -0.351562 2.925781 -0.375 2.90625 -0.375 C 2.882812 -0.375 2.851562 -0.359375 2.8125 -0.328125 C 2.457031 -0.046875 2.054688 0.09375 1.609375 0.09375 C 1.285156 0.09375 1.003906 -0.00390625 0.765625 -0.203125 C 0.535156 -0.398438 0.421875 -0.65625 0.421875 -0.96875 C 0.421875 -1.351562 0.59375 -1.648438 0.9375 -1.859375 C 1.238281 -2.035156 1.710938 -2.175781 2.359375 -2.28125 C 2.515625 -2.300781 2.617188 -2.316406 2.671875 -2.328125 C 2.742188 -2.335938 2.78125 -2.378906 2.78125 -2.453125 L 2.78125 -3.21875 C 2.78125 -3.445312 2.703125 -3.625 2.546875 -3.75 C 2.398438 -3.882812 2.203125 -3.953125 1.953125 -3.953125 C 1.703125 -3.953125 1.472656 -3.875 1.265625 -3.71875 C 1.066406 -3.5625 0.9375 -3.347656 0.875 -3.078125 C 0.863281 -2.992188 0.816406 -2.953125 0.734375 -2.953125 C 0.660156 -2.953125 0.625 -2.992188 0.625 -3.078125 L 0.625 -3.703125 C 0.625 -3.796875 0.65625 -3.863281 0.71875 -3.90625 C 1.007812 -4.132812 1.429688 -4.25 1.984375 -4.25 C 2.535156 -4.25 2.921875 -4.128906 3.140625 -3.890625 C 3.359375 -3.648438 3.46875 -3.34375 3.46875 -2.96875 L 3.46875 -0.75 C 3.46875 -0.570312 3.523438 -0.425781 3.640625 -0.3125 C 3.753906 -0.207031 3.890625 -0.15625 4.046875 -0.15625 C 4.128906 -0.15625 4.171875 -0.117188 4.171875 -0.046875 Z M 2.765625 -0.8125 L 2.765625 -1.859375 C 2.765625 -1.941406 2.726562 -1.984375 2.65625 -1.984375 C 2.65625 -1.984375 2.648438 -1.984375 2.640625 -1.984375 C 1.640625 -1.859375 1.140625 -1.550781 1.140625 -1.0625 C 1.140625 -0.832031 1.210938 -0.648438 1.359375 -0.515625 C 1.515625 -0.390625 1.6875 -0.328125 1.875 -0.328125 C 2.0625 -0.328125 2.222656 -0.363281 2.359375 -0.4375 C 2.503906 -0.507812 2.609375 -0.582031 2.671875 -0.65625 C 2.734375 -0.726562 2.765625 -0.78125 2.765625 -0.8125 Z M 2.765625 -0.8125 "/></g></g></g><g fill="#403737" fill-opacity="1"><g transform="translate(180.940566, 94.64224)"><g><path d="M 6.203125 -2.359375 C 6.222656 -1.609375 5.953125 -1.03125 5.390625 -0.625 C 4.835938 -0.21875 4.160156 -0.00390625 3.359375 0.015625 C 2.554688 0.046875 1.890625 -0.0195312 1.359375 -0.1875 C 0.835938 -0.363281 0.578125 -0.570312 0.578125 -0.8125 L 0.53125 -2.21875 C 0.519531 -2.382812 0.582031 -2.46875 0.71875 -2.46875 C 0.820312 -2.476562 0.898438 -2.40625 0.953125 -2.25 C 1.179688 -1.632812 1.460938 -1.179688 1.796875 -0.890625 C 2.128906 -0.597656 2.597656 -0.460938 3.203125 -0.484375 C 3.804688 -0.503906 4.289062 -0.65625 4.65625 -0.9375 C 5.019531 -1.226562 5.191406 -1.613281 5.171875 -2.09375 C 5.160156 -2.625 4.851562 -3.054688 4.25 -3.390625 C 3.976562 -3.546875 3.679688 -3.695312 3.359375 -3.84375 C 3.035156 -3.988281 2.710938 -4.132812 2.390625 -4.28125 C 2.066406 -4.4375 1.769531 -4.609375 1.5 -4.796875 C 0.894531 -5.203125 0.582031 -5.734375 0.5625 -6.390625 C 0.539062 -7.054688 0.773438 -7.59375 1.265625 -8 C 1.765625 -8.40625 2.359375 -8.617188 3.046875 -8.640625 C 3.742188 -8.660156 4.332031 -8.59375 4.8125 -8.4375 C 5.300781 -8.28125 5.550781 -8.097656 5.5625 -7.890625 L 5.59375 -6.671875 C 5.59375 -6.515625 5.535156 -6.429688 5.421875 -6.421875 C 5.304688 -6.421875 5.21875 -6.5 5.15625 -6.65625 C 4.96875 -7.164062 4.734375 -7.539062 4.453125 -7.78125 C 4.179688 -8.019531 3.773438 -8.128906 3.234375 -8.109375 C 2.691406 -8.097656 2.265625 -7.957031 1.953125 -7.6875 C 1.648438 -7.425781 1.503906 -7.101562 1.515625 -6.71875 C 1.535156 -6.34375 1.703125 -6.019531 2.015625 -5.75 C 2.335938 -5.488281 2.722656 -5.253906 3.171875 -5.046875 C 3.617188 -4.847656 4.070312 -4.640625 4.53125 -4.421875 C 4.988281 -4.210938 5.378906 -3.929688 5.703125 -3.578125 C 6.023438 -3.234375 6.191406 -2.828125 6.203125 -2.359375 Z M 6.203125 -2.359375 "/></g></g></g><g fill="#403737" fill-opacity="1"><g transform="translate(193.553883, 94.651188)"><g><path d="M 6.34375 0.71875 L 1.875 0.21875 L 0.53125 0.109375 C 0.414062 0.0976562 0.363281 0.0390625 0.375 -0.0625 C 0.382812 -0.175781 0.4375 -0.226562 0.53125 -0.21875 L 0.875 -0.203125 C 1.03125 -0.203125 1.160156 -0.238281 1.265625 -0.3125 C 1.378906 -0.382812 1.445312 -0.492188 1.46875 -0.640625 L 2.234375 -7.421875 C 2.265625 -7.703125 2.101562 -7.878906 1.75 -7.953125 L 1.421875 -8.03125 C 1.328125 -8.039062 1.285156 -8.097656 1.296875 -8.203125 C 1.304688 -8.304688 1.367188 -8.351562 1.484375 -8.34375 L 2.8125 -8.140625 L 7.0625 -7.671875 C 7.195312 -7.648438 7.3125 -7.585938 7.40625 -7.484375 C 7.5 -7.390625 7.539062 -7.273438 7.53125 -7.140625 L 7.578125 -6.015625 C 7.585938 -5.859375 7.523438 -5.785156 7.390625 -5.796875 C 7.253906 -5.816406 7.171875 -5.894531 7.140625 -6.03125 C 7.066406 -6.425781 6.921875 -6.71875 6.703125 -6.90625 C 6.484375 -7.09375 6.160156 -7.210938 5.734375 -7.265625 L 3.859375 -7.46875 C 3.679688 -7.488281 3.535156 -7.457031 3.421875 -7.375 C 3.304688 -7.289062 3.238281 -7.160156 3.21875 -6.984375 L 2.9375 -4.46875 C 2.925781 -4.363281 2.972656 -4.300781 3.078125 -4.28125 L 5.296875 -4.03125 C 5.398438 -4.019531 5.488281 -4.039062 5.5625 -4.09375 C 5.632812 -4.144531 5.679688 -4.191406 5.703125 -4.234375 C 5.734375 -4.273438 5.773438 -4.363281 5.828125 -4.5 L 5.890625 -4.65625 C 5.929688 -4.738281 6 -4.773438 6.09375 -4.765625 C 6.1875 -4.753906 6.226562 -4.691406 6.21875 -4.578125 L 6.046875 -3.578125 L 5.984375 -2.59375 C 5.972656 -2.488281 5.914062 -2.4375 5.8125 -2.4375 C 5.71875 -2.445312 5.664062 -2.503906 5.65625 -2.609375 L 5.65625 -2.828125 C 5.625 -3.242188 5.484375 -3.460938 5.234375 -3.484375 L 3 -3.75 C 2.90625 -3.757812 2.851562 -3.707031 2.84375 -3.59375 L 2.53125 -0.84375 C 2.507812 -0.675781 2.546875 -0.53125 2.640625 -0.40625 C 2.734375 -0.289062 2.867188 -0.222656 3.046875 -0.203125 L 5.015625 0.015625 C 5.429688 0.0546875 5.796875 -0.00390625 6.109375 -0.171875 C 6.429688 -0.347656 6.675781 -0.617188 6.84375 -0.984375 C 6.894531 -1.109375 6.96875 -1.164062 7.0625 -1.15625 C 7.15625 -1.144531 7.21875 -1.113281 7.25 -1.0625 C 7.28125 -1.019531 7.285156 -0.972656 7.265625 -0.921875 L 6.9375 0.296875 C 6.90625 0.429688 6.832031 0.539062 6.71875 0.625 C 6.613281 0.707031 6.488281 0.738281 6.34375 0.71875 Z M 6.34375 0.71875 "/></g></g></g><g fill="#403737" fill-opacity="1"><g transform="translate(206.75246, 96.529279)"><g><path d="M 7.5625 0.203125 L 9.109375 -5.421875 C 9.171875 -5.679688 9.039062 -5.878906 8.71875 -6.015625 L 8.375 -6.15625 C 8.3125 -6.1875 8.289062 -6.25 8.3125 -6.34375 C 8.34375 -6.4375 8.410156 -6.46875 8.515625 -6.4375 L 9.625 -6.09375 L 10.546875 -5.890625 C 10.660156 -5.859375 10.703125 -5.796875 10.671875 -5.703125 C 10.648438 -5.609375 10.582031 -5.566406 10.46875 -5.578125 L 10.265625 -5.59375 C 9.941406 -5.625 9.75 -5.515625 9.6875 -5.265625 L 7.671875 2.078125 C 7.648438 2.171875 7.597656 2.207031 7.515625 2.1875 L 7.375 2.140625 C 7.164062 2.085938 7.023438 1.953125 6.953125 1.734375 L 3.765625 -5.84375 C 3.742188 -5.863281 3.71875 -5.878906 3.6875 -5.890625 C 3.664062 -5.898438 3.644531 -5.863281 3.625 -5.78125 L 2.109375 -0.25 C 2.046875 0.0078125 2.15625 0.207031 2.4375 0.34375 L 2.640625 0.4375 C 2.734375 0.476562 2.765625 0.539062 2.734375 0.625 C 2.710938 0.71875 2.640625 0.75 2.515625 0.71875 L 1.625 0.4375 L 0.5 0.171875 C 0.382812 0.140625 0.335938 0.0820312 0.359375 0 C 0.390625 -0.09375 0.457031 -0.140625 0.5625 -0.140625 L 0.890625 -0.078125 C 1.253906 -0.0234375 1.472656 -0.132812 1.546875 -0.40625 L 3.359375 -7 C 3.421875 -7.257812 3.300781 -7.453125 3 -7.578125 L 2.8125 -7.65625 C 2.71875 -7.695312 2.6875 -7.765625 2.71875 -7.859375 C 2.75 -7.960938 2.820312 -8 2.9375 -7.96875 L 3.84375 -7.671875 C 4.070312 -7.597656 4.222656 -7.476562 4.296875 -7.3125 L 7.453125 0.21875 C 7.460938 0.238281 7.476562 0.253906 7.5 0.265625 C 7.53125 0.273438 7.550781 0.253906 7.5625 0.203125 Z M 7.5625 0.203125 "/></g></g></g><g fill="#403737" fill-opacity="1"><g transform="translate(220.991006, 101.000365)"><g><path d="M 0.65625 0.328125 C 0.550781 0.285156 0.515625 0.21875 0.546875 0.125 C 0.585938 0.03125 0.65625 -0.00390625 0.75 0.015625 L 0.9375 0.09375 C 1.257812 0.175781 1.476562 0.0820312 1.59375 -0.1875 L 4.25 -6.46875 C 4.363281 -6.726562 4.257812 -6.945312 3.9375 -7.125 L 3.625 -7.3125 C 3.550781 -7.351562 3.53125 -7.414062 3.5625 -7.5 C 3.601562 -7.59375 3.675781 -7.617188 3.78125 -7.578125 L 5.015625 -7 L 6.125 -6.578125 C 6.238281 -6.535156 6.273438 -6.472656 6.234375 -6.390625 C 6.191406 -6.285156 6.117188 -6.253906 6.015625 -6.296875 L 5.8125 -6.328125 C 5.507812 -6.398438 5.304688 -6.316406 5.203125 -6.078125 L 2.546875 0.203125 C 2.484375 0.335938 2.484375 0.460938 2.546875 0.578125 C 2.609375 0.703125 2.703125 0.804688 2.828125 0.890625 L 3.140625 1.015625 C 3.242188 1.054688 3.273438 1.128906 3.234375 1.234375 C 3.210938 1.273438 3.175781 1.300781 3.125 1.3125 C 3.082031 1.332031 3.039062 1.335938 3 1.328125 L 1.765625 0.75 Z M 0.65625 0.328125 "/></g></g></g><g fill="#403737" fill-opacity="1"><g transform="translate(229.741157, 104.917814)"><g><path d="M 8.53125 -4.875 C 9.613281 -4.226562 10.273438 -3.363281 10.515625 -2.28125 C 10.753906 -1.195312 10.550781 -0.113281 9.90625 0.96875 C 9.257812 2.0625 8.390625 2.757812 7.296875 3.0625 C 6.210938 3.363281 5.132812 3.195312 4.0625 2.5625 C 3 1.925781 2.335938 1.0625 2.078125 -0.03125 C 1.828125 -1.132812 2.019531 -2.222656 2.65625 -3.296875 C 3.300781 -4.378906 4.171875 -5.070312 5.265625 -5.375 C 6.359375 -5.6875 7.445312 -5.519531 8.53125 -4.875 Z M 9.578125 -2.046875 C 9.585938 -2.515625 9.476562 -2.953125 9.25 -3.359375 C 9.019531 -3.773438 8.671875 -4.125 8.203125 -4.40625 C 7.359375 -4.90625 6.554688 -5.035156 5.796875 -4.796875 C 5.035156 -4.554688 4.390625 -3.992188 3.859375 -3.109375 C 3.316406 -2.191406 3.039062 -1.253906 3.03125 -0.296875 C 3.007812 0.191406 3.113281 0.644531 3.34375 1.0625 C 3.582031 1.488281 3.929688 1.84375 4.390625 2.125 C 5.203125 2.613281 5.992188 2.722656 6.765625 2.453125 C 7.546875 2.191406 8.207031 1.601562 8.75 0.6875 C 9.289062 -0.21875 9.566406 -1.128906 9.578125 -2.046875 Z M 9.578125 -2.046875 "/></g></g></g><g fill="#403737" fill-opacity="1"><g transform="translate(242.623225, 113.184957)"><g><path d="M 7.359375 -0.359375 C 7.835938 -0.359375 8.238281 -0.550781 8.5625 -0.9375 C 8.882812 -1.332031 9 -1.765625 8.90625 -2.234375 C 8.820312 -2.703125 8.566406 -3.113281 8.140625 -3.46875 L 7.265625 -4.203125 C 7.023438 -4.398438 6.800781 -4.375 6.59375 -4.125 L 4.859375 -2.046875 C 4.796875 -1.972656 4.796875 -1.910156 4.859375 -1.859375 L 6 -0.90625 C 6.425781 -0.550781 6.878906 -0.367188 7.359375 -0.359375 Z M 8.796875 -3.609375 C 9.390625 -3.117188 9.75 -2.566406 9.875 -1.953125 C 10 -1.347656 9.851562 -0.796875 9.4375 -0.296875 C 9.019531 0.203125 8.488281 0.457031 7.84375 0.46875 C 7.207031 0.488281 6.660156 0.3125 6.203125 -0.0625 L 6.15625 -0.046875 C 6.257812 0.109375 6.296875 0.273438 6.265625 0.453125 L 5.828125 3.828125 C 5.773438 4.148438 5.867188 4.441406 6.109375 4.703125 L 6.28125 4.859375 C 6.34375 4.953125 6.347656 5.03125 6.296875 5.09375 C 6.222656 5.175781 6.140625 5.175781 6.046875 5.09375 C 5.472656 4.582031 5.113281 4.265625 4.96875 4.140625 C 4.820312 4.023438 4.757812 3.867188 4.78125 3.671875 L 5.390625 -0.203125 C 5.421875 -0.503906 5.363281 -0.71875 5.21875 -0.84375 C 5.21875 -0.84375 5.210938 -0.84375 5.203125 -0.84375 L 4.53125 -1.40625 C 4.445312 -1.476562 4.378906 -1.476562 4.328125 -1.40625 L 2.375 0.9375 C 2.28125 1.050781 2.242188 1.175781 2.265625 1.3125 C 2.285156 1.445312 2.347656 1.5625 2.453125 1.65625 L 2.84375 2 C 2.914062 2.050781 2.914062 2.117188 2.84375 2.203125 C 2.769531 2.285156 2.6875 2.289062 2.59375 2.21875 L 1.46875 1.234375 L 0.421875 0.40625 C 0.347656 0.34375 0.332031 0.269531 0.375 0.1875 C 0.445312 0.101562 0.523438 0.0820312 0.609375 0.125 L 0.890625 0.34375 C 1.148438 0.53125 1.378906 0.507812 1.578125 0.28125 L 5.953125 -4.96875 C 6.128906 -5.1875 6.085938 -5.421875 5.828125 -5.671875 L 5.609375 -5.9375 C 5.535156 -6 5.53125 -6.066406 5.59375 -6.140625 C 5.65625 -6.210938 5.726562 -6.210938 5.8125 -6.140625 L 7.078125 -5.046875 Z M 8.796875 -3.609375 "/></g></g></g><g fill="#403737" fill-opacity="1"><g transform="translate(252.865833, 122.394037)"><g/></g></g><g fill="#403737" fill-opacity="1"><g transform="translate(258.609384, 128.741785)"><g><path d="M 9.75 -1.0625 C 10.488281 -0.0390625 10.753906 1.015625 10.546875 2.109375 C 10.335938 3.203125 9.71875 4.117188 8.6875 4.859375 C 7.664062 5.597656 6.59375 5.890625 5.46875 5.734375 C 4.351562 5.578125 3.429688 4.992188 2.703125 3.984375 C 1.984375 2.972656 1.722656 1.910156 1.921875 0.796875 C 2.117188 -0.304688 2.726562 -1.222656 3.75 -1.953125 C 4.769531 -2.691406 5.84375 -2.984375 6.96875 -2.828125 C 8.09375 -2.671875 9.019531 -2.082031 9.75 -1.0625 Z M 9.59375 1.96875 C 9.789062 1.539062 9.863281 1.085938 9.8125 0.609375 C 9.769531 0.140625 9.59375 -0.316406 9.28125 -0.765625 C 8.707031 -1.554688 8.023438 -1.992188 7.234375 -2.078125 C 6.441406 -2.171875 5.628906 -1.914062 4.796875 -1.3125 C 3.929688 -0.6875 3.296875 0.0664062 2.890625 0.953125 C 2.679688 1.367188 2.597656 1.816406 2.640625 2.296875 C 2.679688 2.785156 2.859375 3.253906 3.171875 3.703125 C 3.722656 4.472656 4.40625 4.890625 5.21875 4.953125 C 6.039062 5.015625 6.878906 4.738281 7.734375 4.125 C 8.597656 3.507812 9.21875 2.789062 9.59375 1.96875 Z M 9.59375 1.96875 "/></g></g></g><g fill="#403737" fill-opacity="1"><g transform="translate(267.110689, 141.475485)"><g><path d="M 6.46875 2.5625 C 6.632812 3.039062 6.628906 3.546875 6.453125 4.078125 C 6.285156 4.617188 5.914062 5.03125 5.34375 5.3125 C 4.769531 5.601562 4.160156 5.640625 3.515625 5.421875 C 2.878906 5.203125 2.398438 4.773438 2.078125 4.140625 L 0.859375 1.703125 L 0.203125 0.5 C 0.148438 0.394531 0.179688 0.316406 0.296875 0.265625 C 0.378906 0.222656 0.4375 0.242188 0.46875 0.328125 L 0.65625 0.625 C 0.851562 0.925781 1.082031 1.015625 1.34375 0.890625 L 7.4375 -2.171875 C 7.6875 -2.296875 7.75 -2.53125 7.625 -2.875 L 7.484375 -3.203125 C 7.460938 -3.296875 7.488281 -3.359375 7.5625 -3.390625 C 7.664062 -3.441406 7.742188 -3.414062 7.796875 -3.3125 L 8.4375 -1.953125 L 9.484375 0.125 C 9.765625 0.6875 9.828125 1.238281 9.671875 1.78125 C 9.515625 2.332031 9.207031 2.722656 8.75 2.953125 C 8.289062 3.179688 7.863281 3.242188 7.46875 3.140625 C 7.070312 3.035156 6.75 2.835938 6.5 2.546875 Z M 6.96875 2.140625 C 7.351562 2.273438 7.753906 2.238281 8.171875 2.03125 C 8.585938 1.820312 8.847656 1.53125 8.953125 1.15625 C 9.054688 0.78125 8.992188 0.375 8.765625 -0.0625 L 8.328125 -0.96875 C 8.273438 -1.0625 8.191406 -1.132812 8.078125 -1.1875 C 7.960938 -1.238281 7.867188 -1.25 7.796875 -1.21875 L 5.625 -0.125 C 5.488281 -0.0507812 5.457031 0.0625 5.53125 0.21875 L 6.0625 1.296875 C 6.28125 1.722656 6.582031 2.003906 6.96875 2.140625 Z M 2.3125 3.421875 C 2.570312 3.941406 2.941406 4.285156 3.421875 4.453125 C 3.910156 4.628906 4.40625 4.59375 4.90625 4.34375 C 5.414062 4.09375 5.738281 3.722656 5.875 3.234375 C 6.019531 2.742188 5.960938 2.238281 5.703125 1.71875 L 5.03125 0.40625 C 4.976562 0.28125 4.882812 0.25 4.75 0.3125 L 2 1.703125 C 1.707031 1.847656 1.632812 2.066406 1.78125 2.359375 Z M 2.3125 3.421875 "/></g></g></g><g fill="#403737" fill-opacity="1"><g transform="translate(272.730224, 153.734297)"><g><path d="M 0.203125 0.703125 C 0.160156 0.597656 0.1875 0.53125 0.28125 0.5 C 0.375 0.46875 0.445312 0.488281 0.5 0.5625 L 0.578125 0.765625 C 0.734375 1.046875 0.945312 1.140625 1.21875 1.046875 L 7.65625 -1.234375 C 7.925781 -1.328125 8.007812 -1.550781 7.90625 -1.90625 L 7.84375 -2.25 C 7.820312 -2.332031 7.859375 -2.390625 7.953125 -2.421875 C 8.046875 -2.453125 8.109375 -2.414062 8.140625 -2.3125 L 8.546875 -1.015625 L 9 0.09375 C 9.03125 0.195312 9.003906 0.265625 8.921875 0.296875 C 8.804688 0.328125 8.734375 0.296875 8.703125 0.203125 L 8.59375 0.015625 C 8.445312 -0.253906 8.25 -0.347656 8 -0.265625 L 1.5625 2.015625 C 1.425781 2.066406 1.332031 2.15625 1.28125 2.28125 C 1.238281 2.40625 1.234375 2.539062 1.265625 2.6875 L 1.359375 3.015625 C 1.398438 3.109375 1.375 3.171875 1.28125 3.203125 C 1.226562 3.222656 1.175781 3.222656 1.125 3.203125 C 1.082031 3.179688 1.054688 3.148438 1.046875 3.109375 L 0.640625 1.8125 Z M 0.203125 0.703125 "/></g></g></g><g fill="#403737" fill-opacity="1"><g transform="translate(275.739928, 162.83667)"><g><path d="M 9.34375 2.984375 C 9.601562 4.222656 9.414062 5.300781 8.78125 6.21875 C 8.144531 7.132812 7.207031 7.71875 5.96875 7.96875 C 4.726562 8.226562 3.625 8.054688 2.65625 7.453125 C 1.695312 6.859375 1.09375 5.953125 0.84375 4.734375 C 0.59375 3.515625 0.785156 2.4375 1.421875 1.5 C 2.066406 0.570312 3.003906 -0.015625 4.234375 -0.265625 C 5.460938 -0.523438 6.554688 -0.359375 7.515625 0.234375 C 8.484375 0.835938 9.09375 1.753906 9.34375 2.984375 Z M 7.96875 5.703125 C 8.320312 5.390625 8.570312 5.007812 8.71875 4.5625 C 8.875 4.113281 8.894531 3.625 8.78125 3.09375 C 8.582031 2.132812 8.140625 1.453125 7.453125 1.046875 C 6.765625 0.648438 5.914062 0.554688 4.90625 0.765625 C 3.863281 0.972656 2.984375 1.398438 2.265625 2.046875 C 1.890625 2.347656 1.617188 2.726562 1.453125 3.1875 C 1.296875 3.65625 1.273438 4.15625 1.390625 4.6875 C 1.578125 5.613281 2.03125 6.269531 2.75 6.65625 C 3.476562 7.050781 4.359375 7.140625 5.390625 6.921875 C 6.429688 6.710938 7.289062 6.304688 7.96875 5.703125 Z M 7.96875 5.703125 "/></g></g></g><g fill="#403737" fill-opacity="1"><g transform="translate(278.415586, 177.858292)"><g><path d="M 0.421875 11.234375 C 0.367188 11.234375 0.328125 11.210938 0.296875 11.171875 C 0.265625 11.140625 0.25 11.101562 0.25 11.0625 L 0.25 9.703125 L 0.171875 8.515625 C 0.171875 8.398438 0.21875 8.34375 0.3125 8.34375 C 0.414062 8.34375 0.476562 8.390625 0.5 8.484375 L 0.53125 8.671875 C 0.582031 9.003906 0.753906 9.171875 1.046875 9.171875 L 6.703125 8.921875 C 6.785156 8.921875 6.828125 8.898438 6.828125 8.859375 C 6.828125 8.828125 6.816406 8.804688 6.796875 8.796875 L 0.1875 5.703125 C 0.113281 5.660156 0.0703125 5.613281 0.0625 5.5625 C 0.0625 5.507812 0.0976562 5.46875 0.171875 5.4375 L 6.4375 1.984375 C 6.457031 1.972656 6.46875 1.957031 6.46875 1.9375 C 6.457031 1.882812 6.410156 1.859375 6.328125 1.859375 L 0.84375 1.9375 C 0.570312 1.9375 0.414062 2.097656 0.375 2.421875 L 0.34375 2.640625 C 0.332031 2.742188 0.28125 2.796875 0.1875 2.796875 C 0.09375 2.796875 0.0390625 2.738281 0.03125 2.625 L 0.046875 1.640625 L -0.015625 0.46875 C -0.015625 0.351562 0.03125 0.296875 0.125 0.296875 C 0.21875 0.296875 0.273438 0.34375 0.296875 0.4375 L 0.328125 0.765625 C 0.378906 1.128906 0.546875 1.3125 0.828125 1.3125 L 7.671875 1.28125 C 7.941406 1.269531 8.09375 1.101562 8.125 0.78125 L 8.140625 0.5625 C 8.148438 0.46875 8.207031 0.421875 8.3125 0.421875 C 8.414062 0.421875 8.46875 0.476562 8.46875 0.59375 L 8.453125 1.65625 C 8.460938 1.925781 8.390625 2.097656 8.234375 2.171875 L 1.59375 5.765625 L 8.40625 8.890625 C 8.5625 8.960938 8.644531 9.140625 8.65625 9.421875 L 8.734375 10.484375 C 8.734375 10.609375 8.679688 10.671875 8.578125 10.671875 C 8.472656 10.671875 8.414062 10.625 8.40625 10.53125 L 8.375 10.3125 C 8.34375 10 8.179688 9.847656 7.890625 9.859375 L 1.0625 10.203125 C 0.914062 10.203125 0.800781 10.25 0.71875 10.34375 C 0.644531 10.445312 0.597656 10.570312 0.578125 10.71875 L 0.578125 11.09375 C 0.578125 11.1875 0.523438 11.234375 0.421875 11.234375 Z M 0.421875 11.234375 "/></g></g></g><g fill="#403737" fill-opacity="1"><g transform="translate(278.259211, 195.040479)"><g><path d="M 2.875 3.1875 L 2.484375 5.828125 C 2.472656 5.921875 2.519531 5.953125 2.625 5.921875 L 6.453125 5.046875 L 3.015625 3.09375 C 2.929688 3.0625 2.882812 3.09375 2.875 3.1875 Z M 0.546875 1.703125 C 0.503906 1.691406 0.453125 1.679688 0.390625 1.671875 C 0.335938 1.660156 0.265625 1.679688 0.171875 1.734375 C 0.0859375 1.785156 0.0351562 1.867188 0.015625 1.984375 L -0.03125 2.234375 C -0.0703125 2.316406 -0.132812 2.351562 -0.21875 2.34375 C -0.332031 2.332031 -0.378906 2.273438 -0.359375 2.171875 L -0.171875 1.125 L -0.046875 0.046875 C -0.0351562 -0.0664062 0.0195312 -0.113281 0.125 -0.09375 C 0.238281 -0.0820312 0.289062 -0.03125 0.28125 0.0625 L 0.265625 0.28125 C 0.253906 0.613281 0.378906 0.863281 0.640625 1.03125 L 7.734375 5.203125 C 7.816406 5.242188 7.847656 5.34375 7.828125 5.5 C 7.804688 5.65625 7.742188 5.75 7.640625 5.78125 L -0.328125 7.703125 C -0.640625 7.765625 -0.832031 7.96875 -0.90625 8.3125 L -0.96875 8.5625 C -0.96875 8.59375 -0.984375 8.617188 -1.015625 8.640625 C -1.054688 8.660156 -1.097656 8.664062 -1.140625 8.65625 C -1.253906 8.644531 -1.300781 8.582031 -1.28125 8.46875 L -1.046875 7.109375 L -0.90625 5.890625 C -0.894531 5.773438 -0.84375 5.722656 -0.75 5.734375 C -0.632812 5.742188 -0.578125 5.800781 -0.578125 5.90625 L -0.59375 6.1875 C -0.601562 6.289062 -0.578125 6.378906 -0.515625 6.453125 C -0.453125 6.535156 -0.390625 6.582031 -0.328125 6.59375 C -0.265625 6.601562 -0.210938 6.597656 -0.171875 6.578125 L 1.75 6.125 C 1.832031 6.113281 1.882812 6.054688 1.90625 5.953125 L 2.359375 2.875 C 2.367188 2.769531 2.335938 2.695312 2.265625 2.65625 Z M 0.546875 1.703125 "/></g></g></g></svg>